<svg xmlns="http://www.w3.org/2000/svg" width="510.24" height="113.39" viewBox="0 0 510.24 113.39"><g fill="#FFF"><circle cx="104.98" cy="103.341" r="7.685"/><path d="M110.086 76.327a21.226 21.226 0 0 0 3.394-11.53c0-11.749-9.558-21.307-21.307-21.307s-21.307 9.558-21.307 21.307c0 3.176.687 6.236 2.042 9.097.028.033.05.071.069.113a5.658 5.658 0 0 0 5.188 3.405 5.665 5.665 0 0 0 5.658-5.658c0-.969-.252-1.927-.728-2.771a9.895 9.895 0 0 1-.927-4.185c0-5.516 4.488-10.004 10.004-10.004s10.004 4.488 10.004 10.004c0 1.94-.561 3.826-1.622 5.452-3.416 5.243-7.034 9.498-11.385 13.392-7.571 6.776-17.8 13.174-28.063 17.554-1.273.613-2.734.928-4.323.928-1.543 0-3.042-.329-4.337-.952-8.336-3.561-19.986-9.505-28.031-17.55-3.81-3.811-8.137-8.367-11.338-13.264a.427.427 0 0 1-.04-.076 9.942 9.942 0 0 1-1.641-5.484c0-5.516 4.488-10.004 10.004-10.004 1.052 0 2.095.166 3.099.494 4.583 1.424 11.123 1.932 15.712 1.932 14.801 0 28.548-7.433 36.775-19.884a23.93 23.93 0 0 0 3.991-13.261C80.977 10.823 70.195.042 56.944.042S32.911 10.821 32.911 24.073c0 2.881.515 5.715 1.532 8.425.746 2.413 2.919 4.015 5.417 4.015a5.665 5.665 0 0 0 5.658-5.658c0-.769-.153-1.516-.453-2.219a12.666 12.666 0 0 1-.852-4.563c0-7.02 5.712-12.731 12.731-12.731s12.73 5.711 12.73 12.731c0 2.507-.733 4.936-2.118 7.023-6.131 9.279-16.354 14.819-27.345 14.819-4.522 0-8.293-.101-12.21-1.378a21.272 21.272 0 0 0-6.6-1.047C9.652 43.49.094 53.048.094 64.797c0 4.22 1.233 8.299 3.565 11.799a.474.474 0 0 1 .037.051c9.212 14.049 25.308 26.753 44.162 34.854 2.777 1.28 5.777 1.926 8.926 1.926 3.175 0 6.177-.641 8.921-1.906 18.957-8.138 35.128-20.963 44.381-35.194z"/></g><path d="M156.554 34.143c.784.1 1.619.345 2.503.736l.883 1.766c-1.277 2.649-1.914 5.202-1.914 7.654 2.452 0 4.906.492 7.36 1.472.883 1.276 1.03 2.503.442 3.68-2.944 2.061-6.134 2.944-9.568 2.649-1.375 4.809-1.817 9.766-1.325 14.867l1.619 1.472 3.091-.442a29.777 29.777 0 0 1 7.507-4.268c.196 2.847-.345 5.445-1.619 7.801l-2.797 3.386c-3.827 2.649-7.753 2.944-11.775.883-2.553-1.767-4.172-4.122-4.857-7.066-.589-3.335-.492-6.819.294-10.45.49-1.863.883-3.924 1.178-6.183l-8.832-1.031-2.355-1.619c-.492-1.079-.198-2.109.883-3.091l2.796-1.325c3.434.198 6.918-.147 10.451-1.03l3.68-8.095 2.355-1.766zm25.167 10.604l1.89 1.473c3.222-1.537 6.652-2.354 10.288-2.45l5.681.874 2.378 2.025c.57 2.219.068 3.933-1.508 5.141-3.505.479-6.942.607-10.306.383l-2.095 1.497c-1.725 4.273-2.329 11.46-1.815 21.558l-1.438 2.33c-1.772 1.227-3.435 1.36-4.989.4-1.758-1.04-2.515-2.504-2.272-4.396-.523-12.657.432-22.233 2.865-28.729l1.321-.106zm34.015 6.575c1.483 7.376 1.583 14.854.3 22.441l-2.229 2.509c-2.232 1.034-4.183.81-5.856-.679-1.647-1.878-2.081-4.266-1.301-7.166.58-5.862 2.226-11.456 4.935-16.787l1.839-1.059 2.312.741zm2.48-19.907l2.254 1.623c1.778 2.871 1.787 5.723.029 8.558-2.74 2.77-5.71 3.07-8.909.891-1.673-1.486-2.237-3.392-1.691-5.717l2.013-3.703 3.072-1.864 3.232.212zm19.88 12.002c4.089.17 9.126 2.061 9.126 2.061l5.299 4.415s1.201 2.576 1.546 3.901c.343 1.325.563 2.675.663 4.048-.787 3.142-2.208 5.741-4.269 7.801-3.238 3.238-7.116 4.319-11.628 3.238-.294 4.908.244 9.863 1.619 14.867 0 0 .17 1.472.221 2.356.048.883-.688 3.753-.835 5.274a31.971 31.971 0 0 1-.81 4.637c-1.375 1.372-2.995 1.913-4.857 1.619-2.061-3.629-2.969-5.568-4.096-9.542-1.129-3.974-1.693-8.119-1.693-12.438 0-4.121.442-8.39 1.325-12.806a7.386 7.386 0 0 1-.294-2.061V58.58c0-5.299 1.766-10.009 5.299-14.131l3.384-1.032zm1.178 6.181l-1.767 1.914a33.03 33.03 0 0 0-.147 5.372 24.56 24.56 0 0 0 .884 5.226 17.48 17.48 0 0 0 4.195-2.061 20.805 20.805 0 0 0 3.753-3.239c.097-1.962-.639-3.827-2.208-5.593l-2.65-1.472-2.06-.147zm30.997 1.739c1.527 7.367 1.672 14.845.435 22.439l-2.214 2.522c-2.226 1.047-4.178.835-5.86-.643-1.659-1.868-2.107-4.254-1.344-7.158.545-5.865 2.157-11.469 4.834-16.817l1.833-1.071 2.316.728zm-.26-19.519l2.625.905c2.529 2.238 3.36 4.966 2.493 8.187-1.826 3.442-4.584 4.584-8.275 3.419-2.03-.941-3.119-2.604-3.266-4.987l.861-4.126 2.405-2.669 3.157-.729zm28.212 10.274c1.373.393 2.845.787 4.415 1.177 2.158 2.553 3.533 5.398 4.122 8.537-.589 6.477.294 12.364 2.65 17.664 1.961-.196 3.827 0 5.593.589.391 2.552-.198 4.613-1.767 6.182-3.141 2.16-6.281 2.454-9.42.883-2.748-2.158-4.416-5.004-5.005-8.537 0-6.083-.294-12.07-.884-17.957-2.355 3.142-3.73 6.476-4.121 10.009 0 6.281-1.081 12.169-3.238 17.663-1.766.983-3.436 1.081-5.005.294-1.571-1.177-2.454-2.845-2.649-5.004-.589-10.794 1.177-20.902 5.299-30.322 1.373 0 2.746.493 4.121 1.472 1.767-.98 3.729-1.863 5.889-2.65zm34.957-4.416c3.728-.196 7.162.883 10.304 3.238l.294 2.061-.883 1.766c-1.571.589-3.042.294-4.415-.883l-4.122.883-3.532 3.533.883.883 8.832 2.061 4.71 2.649c2.158 3.142 2.944 6.477 2.355 10.009-1.571 4.319-4.121 7.753-7.654 10.304l-5.888 2.944c-3.338.787-6.281.294-8.832-1.472-2.748-2.551-3.142-5.396-1.177-8.537 3.728 1.964 7.456 1.67 11.187-.883l3.533-3.532c.589-.98.589-2.061 0-3.238-5.104-.589-9.715-2.356-13.837-5.299-1.964-1.766-2.65-4.022-2.061-6.77.784-2.746 2.452-5.101 5.005-7.066l5.298-2.651zm32.328 13.684c1.443 7.384 1.503 14.863.178 22.442l-2.243 2.497c-2.237 1.022-4.187.787-5.852-.71-1.637-1.887-2.057-4.277-1.262-7.173.611-5.859 2.287-11.444 5.025-16.76l1.845-1.05 2.309.754zm5.855-11.481l-1.241 2.485c-2.55 2.215-5.363 2.68-8.443 1.399-3.173-2.261-3.944-5.145-2.306-8.652 1.199-1.889 2.99-2.752 5.372-2.584l3.978 1.394 2.332 2.734.308 3.224zm33.453-10.151c1.178-.196 2.356.197 3.533 1.177-.394 12.953-.1 25.711.883 38.27l-2.355 2.356c-2.356.786-4.319.294-5.888-1.472-2.748 3.141-5.987 5.497-9.715 7.065-4.71 1.177-8.832.198-12.364-2.944-1.964-2.158-2.748-4.807-2.355-7.949.784-4.121 2.551-7.948 5.299-11.481 2.746-2.746 6.084-5.004 10.009-6.77l7.066-.294 2.355-12.659 2.061-4.121 1.471-1.178zm-7.064 25.317c-2.944.198-5.497 1.177-7.654 2.944l-3.827 5.005c-1.177 2.159-1.376 4.121-.589 5.887l3.827.294 4.71-3.532 4.122-6.182c.39-1.569.294-2.945-.294-4.122l-.295-.294zm39.8-12.659l3.828 1.472c2.355 1.964 3.728 4.416 4.121 7.36-.787 3.532-2.454 6.38-5.005 8.537-3.337 3.141-7.163 5.202-11.481 6.182l3.239 1.766c5.494 0 11.087-.294 16.78-.883l1.766.589c.196 1.376-.099 2.65-.883 3.828-3.141 3.141-6.77 5.103-10.892 5.887-7.654 1.376-14.13-.49-19.429-5.593-2.945-3.924-3.632-8.439-2.061-13.543 1.178-4.121 3.335-7.75 6.477-10.892 2.355-2.551 5.396-4.218 9.126-5.005l4.414.295zm-4.416 8.538l-3.828 3.238-2.355 4.711.883.883 3.533-1.767 5.299-5.299v-1.472l-3.532-.294zm27.65-5.315l2.024 1.283c3.058-1.842 6.393-2.988 10.002-3.435l5.74.319 2.562 1.785c.783 2.154.45 3.907-1.001 5.263-3.443.817-6.851 1.278-10.22 1.38l-1.94 1.693c-1.302 4.42-1.207 11.632.284 21.632l-1.205 2.458c-1.645 1.393-3.287 1.687-4.926.882-1.851-.865-2.746-2.249-2.688-4.154-1.748-12.547-1.725-22.17.066-28.872l1.302-.234zm38.159-7.15c3.721.306 6.979 1.835 9.776 4.59l.015 2.081-1.112 1.632c-1.635.373-3.054-.116-4.257-1.467l-4.203.322-3.974 3.028.757.994 8.476 3.226 4.312 3.257c1.717 3.403 2.049 6.813.992 10.235-2.135 4.07-5.123 7.13-8.966 9.184l-6.23 2.128c-3.412.332-6.264-.55-8.555-2.643-2.381-2.896-2.389-5.768-.022-8.618 3.431 2.447 7.166 2.655 11.204.625l3.975-3.027c.715-.892.86-1.963.434-3.209-4.979-1.268-9.311-3.637-13.001-7.107-1.709-2.014-2.086-4.341-1.134-6.986 1.146-2.616 3.114-4.726 5.907-6.331l5.606-1.914z" fill="#FFF"/></svg>